<?xml version="1.0" standalone="no"?>
<!DOCTYPE svg PUBLIC "-//W3C//DTD SVG 20010904//EN"
 "http://www.w3.org/TR/2001/REC-SVG-20010904/DTD/svg10.dtd">
<svg version="1.0" xmlns="http://www.w3.org/2000/svg"
 width="260.000000pt" height="260.000000pt" viewBox="0 0 260.000000 260.000000"
 preserveAspectRatio="xMidYMid meet">
<metadata>
Created by potrace 1.14, written by Peter Selinger 2001-2017
</metadata>
<g transform="translate(0.000000,260.000000) scale(0.100000,-0.100000)"
fill="#000000" stroke="none">
<path d="M1157 2594 c-1 -1 -41 -5 -89 -8 -101 -7 -300 -56 -368 -91 -74 -38
-110 -72 -110 -106 0 -17 16 -84 35 -151 20 -67 35 -135 34 -152 -2 -17 1 -42
5 -55 7 -21 6 -23 -10 -16 -11 5 -50 10 -88 11 -60 1 -76 -2 -139 -34 -39 -20
-67 -37 -61 -39 7 -2 5 -17 -7 -41 -19 -41 -33 -194 -18 -209 5 -5 10 -21 11
-36 1 -15 6 -27 9 -27 4 0 11 -15 14 -32 10 -44 50 -116 87 -155 57 -60 214
-123 304 -123 16 0 27 -7 33 -22 11 -29 11 -29 -30 -218 -27 -131 -30 -233 -6
-278 12 -22 16 -43 12 -66 -4 -20 -2 -36 4 -40 6 -4 11 -16 11 -27 0 -11 11
-24 25 -31 13 -6 22 -15 19 -20 -3 -4 3 -11 12 -15 10 -3 25 -14 35 -22 34
-31 45 -38 71 -47 26 -9 27 -10 10 -32 -14 -17 -40 -28 -105 -42 -49 -11 -101
-29 -118 -41 -16 -11 -44 -23 -62 -25 -48 -7 -91 -23 -144 -51 -124 -67 -169
-87 -270 -122 -59 -21 -143 -51 -185 -66 l-78 -29 0 -68 0 -68 1300 0 1301 0
-3 77 -3 77 -168 62 c-93 34 -212 82 -265 107 -54 25 -123 52 -155 60 -33 9
-75 27 -96 41 -20 14 -61 30 -91 36 -30 6 -71 15 -90 22 -58 18 -67 49 -20 73
16 8 53 39 82 68 28 28 57 51 64 49 12 -2 36 54 52 123 12 49 10 175 -3 195
-5 8 -11 35 -12 60 -2 25 -9 79 -17 120 -9 41 -15 93 -16 116 0 39 1 41 33 41
77 0 167 24 167 45 0 4 7 8 15 8 8 0 15 3 15 8 0 4 13 13 28 19 48 22 112 74
112 92 0 9 13 33 30 52 33 40 74 135 64 150 -3 6 -1 16 5 23 8 9 8 22 1 40 -6
16 -6 26 0 26 9 0 5 45 -9 111 0 3 -14 20 -31 37 -16 18 -30 36 -30 41 0 11
-55 34 -94 38 -17 2 -61 5 -98 6 -67 2 -68 2 -68 30 0 15 18 97 40 181 45 174
46 176 24 222 -12 25 -31 41 -78 63 -34 16 -75 31 -92 34 -126 22 -172 27
-264 33 -95 6 -468 12 -473 8z"/>
</g>
</svg>
