<svg viewBox="0 0 28 28" fill="#f4846b" xmlns="http://www.w3.org/2000/svg"><path d="M28 14c0-7.7-6.3-14-14-14S0 6.3 0 14c0 7.5 5.9 13.7 13.5 14h1C22 27.7 28 21.5 28 14zM14 25.9c-1.4-1.3-2.4-3-2.9-4.9H17c-.6 1.8-1.6 3.5-3 4.9zM10.5 19c-.3-1.3-.4-2.7-.5-4h7.9c0 1.3-.2 2.7-.5 4h-6.9zm-8.4-4h6c0 1.3.2 2.7.4 4H3.1c-.5-1.3-.9-2.6-1-4zM14 2.3c1.4 1.3 2.4 2.9 2.9 4.7h-5.8c.5-1.8 1.5-3.4 2.9-4.7zM17.5 9c.3 1.3.4 2.7.5 4h-7.9c0-1.3.2-2.7.5-4h6.9zm8.4 4h-6c0-1.3-.2-2.7-.4-4h5.4c.5 1.3.9 2.6 1 4zM8.1 13h-6c.1-1.4.5-2.7 1.1-4h5.3c-.3 1.3-.4 2.7-.4 4zm11.8 2h6c-.1 1.4-.5 2.7-1.1 4h-5.3c.3-1.3.4-2.7.4-4zm3.8-8H19c-.5-1.7-1.2-3.2-2.2-4.6C19.6 3 22 4.7 23.7 7zM11.2 2.4c-1 1.4-1.7 3-2.2 4.6H4.3C6 4.7 8.4 3 11.2 2.4zM4.3 21H9c.5 1.6 1.2 3.2 2.2 4.6-2.8-.7-5.2-2.3-6.9-4.6zm12.6 4.6c1-1.4 1.7-3 2.1-4.6h4.7c-1.7 2.3-4.1 3.9-6.8 4.6z"/></svg>