<svg viewBox="0 0 28 28" xmlns="http://www.w3.org/2000/svg"><path fill="#f4846b" d="m25.72 15.27 1.33-1a2.47 2.47 0 0 0-.75-4.29l-1.6-.51a1.72 1.72 0 0 1-1.15-2l.37-1.66A2.43 2.43 0 0 0 20.62 3l-1.55.65a1.68 1.68 0 0 1-2.15-.79l-.77-1.51a2.41 2.41 0 0 0-4.3 0l-.77 1.51a1.68 1.68 0 0 1-2.15.79L7.38 3a2.43 2.43 0 0 0-3.3 2.8l.37 1.66a1.72 1.72 0 0 1-1.15 2l-1.6.51a2.47 2.47 0 0 0-.7 4.27l1.33 1a1.73 1.73 0 0 1 .4 2.29L1.78 19a2.45 2.45 0 0 0 2.15 3.77l1.67-.08a1.7 1.7 0 0 1 1.76 1.49l.22 1.68a2.42 2.42 0 0 0 4 1.49l1.23-1.15a1.68 1.68 0 0 1 2.29 0l1.23 1.15a2.42 2.42 0 0 0 4-1.49l.22-1.68a1.7 1.7 0 0 1 1.76-1.49l1.67.08A2.45 2.45 0 0 0 26.22 19l-.9-1.43a1.73 1.73 0 0 1 .4-2.3zM14 20.77A6.77 6.77 0 1 1 20.77 14 6.77 6.77 0 0 1 14 20.77z"/></svg>